<?xml version="1.0" standalone="no"?>
<!DOCTYPE svg PUBLIC "-//W3C//DTD SVG 20010904//EN"
 "http://www.w3.org/TR/2001/REC-SVG-20010904/DTD/svg10.dtd">
<svg version="1.0" xmlns="http://www.w3.org/2000/svg"
 width="283.000000pt" height="292.000000pt" viewBox="0 0 283.000000 292.000000"
 preserveAspectRatio="xMidYMid meet">

<g transform="translate(0.000000,292.000000) scale(0.100000,-0.100000)"
fill="#000000" stroke="none">
<path d="M1704 2436 c-3 -8 -4 -29 -2 -48 l3 -33 83 -5 82 -5 -112 -112 -113
-113 -93 80 c-52 44 -97 80 -100 80 -7 0 -210 -176 -582 -505 -107 -95 -208
-184 -225 -198 l-30 -26 158 -1 157 0 0 -180 0 -180 -85 -55 -85 -55 0 -179
c0 -131 3 -181 13 -189 23 -18 667 -392 676 -392 5 0 162 89 348 198 l338 198
0 184 0 185 -122 75 -123 75 0 220 0 220 -223 182 c-275 226 -257 228 -257
-37 l0 -178 -137 -123 c-76 -68 -142 -128 -146 -134 -5 -5 -6 -180 -2 -387 3
-208 3 -378 -1 -378 -4 0 -27 11 -51 25 l-43 26 0 558 0 559 88 79 c48 43 142
127 210 187 l123 107 96 -80 c52 -45 99 -81 104 -81 4 0 70 63 145 140 75 77
141 140 146 140 4 0 8 -40 8 -90 l0 -90 45 0 45 0 0 175 0 175 -165 0 c-133 0
-167 -3 -171 -14z m-6 -726 l92 -75 0 -506 0 -505 -37 -19 c-21 -11 -41 -21
-45 -23 -5 -2 -8 201 -8 452 l0 455 -95 78 -94 78 -1 108 0 108 49 -38 c26
-21 89 -72 139 -113z m-768 -39 c0 -10 -9 -21 -20 -24 -29 -8 -34 9 -8 27 28
20 28 20 28 -3z m668 -687 l2 -469 -45 -27 -45 -28 0 532 0 531 43 -35 42 -36
3 -468z m-189 429 l0 -98 -44 -35 -44 -35 0 -367 c-1 -203 -4 -368 -8 -368 -5
0 -26 11 -48 23 l-40 23 -3 394 -2 394 27 25 c16 14 56 51 91 83 34 32 65 58
67 58 3 0 5 -44 4 -97z m564 -341 l69 -47 1 -125 1 -124 -70 -43 c-38 -23 -72
-43 -76 -43 -5 0 -8 97 -8 215 0 118 3 215 8 214 4 0 38 -21 75 -47z m-1043
-173 c0 -133 -3 -169 -12 -163 -70 40 -68 35 -68 164 l0 119 33 25 c17 14 35
26 40 26 4 0 7 -77 7 -171z"/>
</g>
</svg>
